<?xml version="1.0" encoding="UTF-8" standalone="no"?>
<svg
   xmlns:dc="http://purl.org/dc/elements/1.1/"
   xmlns:cc="http://creativecommons.org/ns#"
   xmlns:rdf="http://www.w3.org/1999/02/22-rdf-syntax-ns#"
   xmlns:svg="http://www.w3.org/2000/svg"
   xmlns="http://www.w3.org/2000/svg"
   xmlns:xlink="http://www.w3.org/1999/xlink"
   xmlns:sodipodi="http://sodipodi.sourceforge.net/DTD/sodipodi-0.dtd"
   xmlns:inkscape="http://www.inkscape.org/namespaces/inkscape"
   id="svg17669"
   viewBox="0 0 500 500"
   version="1.0"
   inkscape:version="0.48.4 r9939"
   width="100%"
   height="100%"
   sodipodi:docname="PizzaPuntLogo.svg">
  <defs
     id="defs35">
    <linearGradient
       id="linearGradient3881">
      <stop
         style="stop-color:#000064;stop-opacity:1;"
         offset="0"
         id="stop3883" />
      <stop
         id="stop3891"
         offset="0.25"
         style="stop-color:#0000de;stop-opacity:1;" />
      <stop
         style="stop-color:#00008c;stop-opacity:1;"
         offset="0.5"
         id="stop3893" />
      <stop
         id="stop3895"
         offset="0.75"
         style="stop-color:#0000d8;stop-opacity:1;" />
      <stop
         style="stop-color:#0000c5;stop-opacity:1;"
         offset="1"
         id="stop3885" />
    </linearGradient>
    <radialGradient
       inkscape:collect="always"
       xlink:href="#linearGradient3881"
       id="radialGradient3889"
       cx="-31.5"
       cy="-75"
       fx="-31.5"
       fy="-75"
       r="189"
       gradientTransform="matrix(1,0,0,0.97619048,0,-1.7857143)"
       gradientUnits="userSpaceOnUse" />
  </defs>
  <sodipodi:namedview
     pagecolor="#ffffff"
     bordercolor="#666666"
     borderopacity="1"
     objecttolerance="10"
     gridtolerance="10"
     guidetolerance="10"
     inkscape:pageopacity="0"
     inkscape:pageshadow="2"
     inkscape:window-width="1228"
     inkscape:window-height="696"
     id="namedview33"
     showgrid="false"
     inkscape:zoom="0.47140452"
     inkscape:cx="-223.02615"
     inkscape:cy="141.12803"
     inkscape:window-x="0"
     inkscape:window-y="0"
     inkscape:window-maximized="0"
     inkscape:current-layer="svg17669"
     showborder="true"
     inkscape:showpageshadow="false" />
  <title
     id="title4024">Pizza Slice in Tango Colors</title>
  <metadata
     id="metadata31">
    <rdf:RDF>
      <cc:Work>
        <dc:format>image/svg+xml</dc:format>
        <dc:type
           rdf:resource="http://purl.org/dc/dcmitype/StillImage" />
        <cc:license
           rdf:resource="http://creativecommons.org/licenses/publicdomain/" />
        <dc:publisher>
          <cc:Agent
             rdf:about="http://openclipart.org/">
            <dc:title>Openclipart</dc:title>
          </cc:Agent>
        </dc:publisher>
        <dc:title>Pizza Slice in Tango Colors</dc:title>
        <dc:date>2013-09-24T02:09:37</dc:date>
        <dc:description>Slice of pepperoni pizza with extra cheese.
\nUses the Tango project color palette.</dc:description>
        <dc:source>https://openclipart.org/detail/183841/pizza-slice-in-tango-colors-by-micro_giraffe-183841</dc:source>
        <dc:creator>
          <cc:Agent>
            <dc:title>micro_giraffe</dc:title>
          </cc:Agent>
        </dc:creator>
        <dc:subject>
          <rdf:Bag>
            <rdf:li>cheese</rdf:li>
            <rdf:li>extra cheese</rdf:li>
            <rdf:li>food</rdf:li>
            <rdf:li>pepperoni</rdf:li>
            <rdf:li>pizza</rdf:li>
            <rdf:li>pizza slice</rdf:li>
            <rdf:li>tango colors</rdf:li>
            <rdf:li>tango palette</rdf:li>
          </rdf:Bag>
        </dc:subject>
      </cc:Work>
      <cc:License
         rdf:about="http://creativecommons.org/licenses/publicdomain/">
        <cc:permits
           rdf:resource="http://creativecommons.org/ns#Reproduction" />
        <cc:permits
           rdf:resource="http://creativecommons.org/ns#Distribution" />
        <cc:permits
           rdf:resource="http://creativecommons.org/ns#DerivativeWorks" />
      </cc:License>
    </rdf:RDF>
  </metadata>
  <g
     inkscape:groupmode="layer"
     id="layer4"
     inkscape:label="Circle"
     transform="translate(0,146)">
    <path
       sodipodi:type="arc"
       style="fill:url(#radialGradient3889);fill-opacity:1;stroke:none"
       id="path3111"
       sodipodi:cx="-31.5"
       sodipodi:cy="-75"
       sodipodi:rx="189"
       sodipodi:ry="184.5"
       d="m 157.5,-75 a 189,184.5 0 1 1 -378,0 189,184.5 0 1 1 378,0 z"
       transform="matrix(1.2566758,0,0,1.2621165,287.96522,196.00207)" />
  </g>
  <g
     inkscape:groupmode="layer"
     id="layer3"
     inkscape:label="Text"
     transform="translate(0,146)">
    <text
       xml:space="preserve"
       style="font-size:85.64337921px;font-style:normal;font-variant:normal;font-weight:normal;font-stretch:normal;line-height:125%;letter-spacing:0px;word-spacing:0px;fill:#365bff;fill-opacity:1;stroke:none;font-family:Liberation Serif;-inkscape-font-specification:Liberation Serif"
       x="183.59956"
       y="200.87875"
       id="text3897"
       sodipodi:linespacing="125%"
       transform="matrix(0.66436818,-0.08280344,0,1.5051895,0,0)"><tspan
         sodipodi:role="line"
         id="tspan3899"
         x="183.59956"
         y="200.87875"
         style="font-style:normal;font-variant:normal;font-weight:bold;font-stretch:normal;fill:#365bff;fill-opacity:1;font-family:Medieval Sharp;-inkscape-font-specification:Medieval Sharp Bold">PizzaPunt</tspan></text>
  </g>
  <g
     inkscape:groupmode="layer"
     id="layer2"
     inkscape:label="Pizza"
     transform="translate(0,146)">
    <g
       transform="matrix(1.1159269,0,0,1.1159269,16.582662,-86.25464)"
       style="fill-rule:evenodd"
       id="layer1">
      <path
         style="fill:#e9b96e"
         inkscape:connector-curvature="0"
         id="path14028"
         d="m 84.587,244.59 c 115.23,-12.87 230.45,-25.74 345.68,-38.61 0.79,-11.09 -6.73,-20.99 -10.1,-31.48 -41.97,-66.13 -94.63,-126.31 -188.28,-166.31 -50.49,-3.1652 -45.74,12.674 -51.68,52.865 54.446,31.084 136.21,40.191 156.21,116.42 l -210.85,50.486 c -9.8993,-5.3456 -19.799,-5.3456 -29.698,-1.7819 l -11.285,18.413 z" />
      <path
         style="fill:#8f5902"
         inkscape:connector-curvature="0"
         id="path3865"
         d="m 90.362,241.61 339.81,-42.156 c 6.5091,2.8373 4.0077,7.1884 -1.5,14.031 l -342.59,38.938 -8.8125,-6.4375 z" />
      <path
         style="fill:#fce94f"
         inkscape:connector-curvature="0"
         id="path4544"
         d="m 180.83,63.254 25.035,6.0084 c 68.095,21.029 126.18,58.081 130.68,108.15 -4.6732,8.345 -13.942,12.219 -14.02,25.035 -0.25085,41.375 -22.17,41.816 -22.531,12.017 -0.30597,-25.209 -4.3394,-27.372 -15.522,-23.032 -17.858,10.014 -48.234,10.515 -73.102,10.515 -3.1711,17.524 -21.363,14.02 -32.045,21.029 -5.5077,63.756 -13.018,61.419 -22.531,0.5007 -18.025,7.3436 -34.873,1.3317 -53.9,1.6655 -13.681,0 -19.374,18.539 -22.958,24.746 -3.4169,5.9183 -12.434,0.54242 -19.778,-5.3825 -7.3436,27.705 6.8099,35.859 -17.024,28.039 -30.842,-10.119 9.3046,54.201 2.128,73.415 -11.025,7.17 -40.022,-28.11 -28.172,-75.93 -15.188,-26.2 -11.85,-37.88 7.511,-48.06 3.5049,-22.531 17.024,-30.543 31.544,-36.05 8.5119,-7.0098 17.024,-14.02 25.536,-21.029 10.682,-25.536 24.367,-33.547 42.559,-39.055 1.669,-29.708 14.854,-34.882 32.045,-39.555 5.6746,-11.683 12.851,-19.861 24.534,-23.032 z" />
      <path
         style="fill:#c4a000"
         inkscape:connector-curvature="0"
         id="path2358"
         d="m 325.5,148.51 c 2.8842,-7.7514 5.7685,-15.503 8.6527,-23.254 h -12.979 c 3.0645,-5.7685 6.129,-11.537 9.1935,-17.305 -7.7514,1.2618 -15.503,2.5237 -23.254,3.7856 2.8842,-7.5711 5.7685,-15.142 8.6527,-22.713 -8.4724,4.8672 -16.945,9.7343 -25.417,14.601 l 7.0303,-24.336 c -5.9487,4.3264 -11.897,8.6527 -17.846,12.979 1.8026,-6.8501 3.6053,-13.7 5.4079,-20.55 -5.0474,3.7856 -10.095,7.5711 -15.142,11.357 -0.18027,-6.6698 -0.36053,-13.34 -0.5408,-20.009 l -14.061,22.173 c -1.4421,-8.833 -2.8842,-17.666 -4.3264,-26.499 -3.7856,4.3264 -7.5711,8.6527 -11.357,12.979 -0.90132,-6.4895 -1.8026,-12.979 -2.704,-19.469 -1.8026,3.425 -3.6053,6.8501 -5.4079,10.275 -2.8842,-5.7685 -5.7685,-11.537 -8.6527,-17.305 -1.8026,4.6869 -3.6053,9.3738 -5.4079,14.061 -3.7856,-3.9658 -7.5711,-7.9316 -11.357,-11.897 v 15.683 l -10.816,10.816 c 7.3908,0.54079 14.782,1.0816 22.173,1.6224 l 25.958,15.142 c -4.5066,3.0645 -9.0132,6.129 -13.52,9.1935 32.087,-4.1461 43.083,2.5237 52.457,20.009 24.696,3.6053 34.25,10.996 43.264,28.662 z" />
      <g
         style="fill:#edd400"
         id="g3999">
        <path
           inkscape:connector-curvature="0"
           id="path3923"
           d="m 113.23,175.92 c -7.1463,-3.0576 -15.021,-2.0028 -22.531,0 4.8401,2.5035 12.01,4.4506 14.531,7.5 1.8204,2.202 4.7496,3.1768 7.1244,4.7652 l 20.469,-7.1089 c 2.6458,-3.7292 3.0237,-7.6638 5.9375,-11.188 6.2541,-7.5632 15.021,-14.688 21.531,-22.031 -15.188,4.3394 -25.837,10.188 -32.031,23.531 -1.8844,4.0592 -5.71,12.151 -5.71,12.151 -3.1071,-2.5399 -5.6316,-6.0412 -9.3212,-7.6198 z" />
        <path
           inkscape:connector-curvature="0"
           id="path3086"
           d="m 226.38,159.39 c -10.045,-12.714 -24.877,-5.3359 -38.062,-3.5 10.181,2.3366 17.852,-1.5913 30.562,7 3.8594,2.6086 5.1206,6.856 5.1206,6.856 l 10.837,0.35463 c 0,0 -4.951,-6.2726 -8.4576,-10.711 z" />
        <path
           inkscape:connector-curvature="0"
           id="path3867"
           d="m 176.3,59.956 c -12.994,3.5766 -18.414,13.112 -26,23.719 -25.849,8.9611 -29.2,14.629 -32.125,38.219 -0.55511,4.4763 -1.031,13.492 -1.031,13.492 l 12.5,-2.7737 c 0,0 0.65403,-6.1591 1.125,-9.2188 2.9678,-19.28 18.069,-28.996 28.719,-32.094 4.0555,-11.086 15.664,-21.613 26.75,-26.75 0.23273,-0.7986 0.44435,-1.593 -4.3527,-5.1578 -5.1501,-1.6639 -5.3458,-0.55126 -5.5848,0.56407 z" />
        <path
           inkscape:connector-curvature="0"
           id="path3907"
           d="m 185.55,111.35 9.4661,-3.0908 c 0,0 -3.0666,-5.3339 -5.1621,-8.3401 -2.3206,-3.3291 -8.8908,-9.2988 -18.375,-11.469 2.0685,4.7366 6.5373,7.9915 9.021,12.293 2.1393,3.7053 5.05,10.606 5.05,10.606 z" />
      </g>
      <g
         id="g3981">
        <g
           id="g3977">
          <path
             style="fill:#a40000"
             inkscape:connector-curvature="0"
             id="path3916"
             d="m 155.29,183.92 c -7.953,-6.4904 -12.813,-10.844 -27.038,-10.512 -10.693,0.24979 -16.8,3.7843 -23.032,10.017 -8.368,8.368 -8.7069,13.203 -10.52,19.971 l 23.035,3.5703 29.191,-11.328 8.3642,-11.718 z" />
          <path
             style="fill:#cc0000"
             inkscape:connector-curvature="0"
             id="path10392"
             d="m 105.08,199.15 c 4.4547,0.79194 8.9094,2.4748 13.364,6.8305 8.2164,-7.0285 16.433,-10.493 27.322,-13.067 3.6627,-19.601 -34.252,-13.067 -40.686,6.2366 z" />
        </g>
        <g
           id="g3969">
          <path
             style="fill:#a40000"
             inkscape:connector-curvature="0"
             id="path3909"
             d="m 263.44,175.92 c -18.86,-7.3436 -31.49,-6.0056 -43.583,-6.0056 0,0 5.6895,-7.6839 8.5342,-10.526 29.213,-29.184 62.423,-34.048 73.606,0 -6.295,0 -25.038,7.0182 -38.557,16.531 z" />
          <path
             style="fill:#cc0000"
             inkscape:connector-curvature="0"
             id="path10396"
             d="m 234.26,165 c 9.8993,0.98993 18.611,2.5738 27.916,7.4245 9.9983,-7.3255 15.839,-10.79 29.104,-13.958 -12.176,-27.223 -43.656,-13.76 -57.02,6.5335 z" />
        </g>
        <g
           id="g3973">
          <path
             style="fill:#a40000"
             inkscape:connector-curvature="0"
             id="path3896"
             d="m 184.21,100.99 c -11.568,1.5352 -30.004,15.114 -34.318,30.098 9.7625,2.684 18.923,4.7987 26.63,9.0578 6.7064,-4.7535 27.513,-11.364 46.375,-6.3438 4.7354,-6.2612 19.212,-11.238 19.212,-11.238 -19.464,-25.611 -41.821,-23.709 -57.9,-21.575 z" />
          <path
             style="fill:#cc0000"
             inkscape:connector-curvature="0"
             id="path10394"
             d="m 160.61,129.95 c 5.2466,0.89094 10.79,2.3758 14.849,6.2366 14.948,-4.2567 25.738,-11.483 45.735,-5.6426 3.1678,-3.0688 7.2265,-5.2466 12.176,-5.6426 -17.225,-27.619 -53.753,-18.71 -72.76,5.0486 z" />
        </g>
      </g>
      <g
         style="fill:#edd400"
         id="g3992">
        <path
           inkscape:connector-curvature="0"
           id="path3861"
           d="m 299.71,228.14 c 1.4872,4.5653 4.982,7.6223 10.438,8.4688 9.8509,-0.80219 13.805,-5.3236 14.781,-11.344 0.68855,-4.2461 0.74939,-8.5753 0.875,-12.875 0.14822,-5.0737 0.67424,-9.8274 1.9375,-14 1.9993,-6.6039 4.057,-11.611 6.8145,-16.319 -14.461,4.4984 -17.323,12.698 -17.752,30.694 -0.45183,18.938 -2.0038,17.969 -5.0625,18.25 -2.974,0.27356 -5.7786,0.29835 -7.125,-15.969 -0.34579,-4.1778 -0.61318,-12.603 0.9375,-19.719 1.9403,-8.9033 -3.3184,-14.234 -11.469,-14.531 -8.1579,3.5691 -16.311,7.1184 -24.469,10.688 -6.1184,0.50987 -12.225,1.0214 -18.344,1.5312 -7.9029,-4.1642 -14.734,-0.73588 -23.719,5.375 -6.3734,-1.2747 -12.752,-2.5691 -19.125,-3.8438 -2.0395,5.3536 -4.0855,10.709 -6.125,16.062 -7.9029,1.7845 -15.785,3.5905 -23.688,5.375 -0.8492,5.0007 -1.7133,9.9993 -2.5625,15 -0.8492,5.0008 -3.5248,20.836 -4.3438,25.531 -3.1767,18.212 -5.2418,7.9711 -8.0312,-12.906 -0.67106,-5.0224 -1.2925,-8.8484 -1.875,-13.281 -0.56189,-4.2761 -0.93151,-8.1803 -1.5625,-12.844 l -9.1562,-9.1562 c -5.8635,4.5888 -11.475,9.5072 -17.594,13.75 -4.0118,2.782 -12.714,4.0624 -22.273,3.2678 5.6778,13.365 18.085,10.501 31.429,5.1697 5.1078,-2.0409 10.328,-2.213 12.156,3.125 1.1812,3.4479 1.46,7.1716 1.625,10.812 0.37795,8.341 -0.69556,16.742 0,25.062 2.2815,27.292 20.335,10.203 26.781,-9.1875 1.7676,-5.3172 2.3431,-27.226 5.2188,-30.875 1.3434,-1.7049 3.6464,-2.3521 5.4688,-3.5312 15.729,1.6767 19.556,-3.1378 24.469,-16.062 14.176,5.8484 24.047,3.0507 34.438,-8.4062 15.736,5.2458 24.977,5.0622 37.469,-5.375 4.2026,0.1003 6.063,-0.34739 6.125,8.4062 0.0273,3.8482 2.0253,19.705 3.3125,23.656 z" />
        <path
           inkscape:connector-curvature="0"
           id="path3892"
           d="m 129.63,132.61 c 4.2344,-2.9276 33.459,5.0131 48.875,13.531 6.7064,-4.7535 29.513,-13.364 48.375,-8.3438 5.1751,-6.2523 8.731,-11.365 25.219,-15.812 -10.208,-1.7976 -14.224,0.17619 -18.719,2.9062 -4.9496,0.39597 -9.0197,2.5875 -12.188,5.6562 -19.997,-5.8406 -30.802,1.3996 -45.75,5.6562 -4.0587,-3.8607 -9.5709,-5.5305 -14.844,-6.25 -3.3248,-0.45367 -6.6765,-0.77018 -10.031,-0.84375 -9.4792,-0.20787 -20.938,3.5 -20.938,3.5 z" />
        <path
           inkscape:connector-curvature="0"
           id="path3853"
           d="m 118.17,121.89 c -21.217,5.685 -29.618,16.084 -42.812,43.594 -12.26,3.9243 -15.876,8.4108 -22.188,19.906 -21.523,-2.3028 -26.826,12.133 -32.125,33.625 -26.885,14.06 -24.035,37.34 -7.6562,53.562 -0.76478,13.256 -1.5164,26.494 -2.2812,39.75 11.696,47.559 58.011,59.968 36.719,1.5312 -3.0592,-13.002 -17.644,-25.998 -9.1875,-39 14.392,9.0548 21.765,14.875 23.719,-19.875 13.875,4.5622 20.207,2.2836 23.719,-2.5625 1.4271,-3.6042 2.8542,-7.2083 4.2812,-10.812 1.9741,-7.3792 3.9229,-14.866 12.531,-16.469 -11.055,-1.7386 -17.274,10.144 -25.625,20.844 -7.1015,-0.54652 -12.87,-6.8257 -17.969,-9.375 -10.375,7.4933 -9.3875,11.203 -8.4062,30.594 -6.6283,-0.25494 -12.737,-3.199 -19.906,-0.75 -2.7349,12.268 -6.5497,20.757 1.5312,35.188 17.87,37.987 10.863,60.282 -14.531,6.875 -1.866,-8.581 1.0214,-14.794 1.5312,-22.188 5.5626,-17.073 -8.8612,-30.911 -7.625,-38.25 0.96539,-9.2704 6.2309,-17.453 19.094,-22.938 4.8512,-22.35 9.1602,-24.677 27.531,-31.344 6.6976,-11.781 12.871,-17.078 29.844,-19.125 5.1136,-29.164 16.699,-38.316 41.281,-42.062 4.2344,-2.9276 33.459,5.0131 48.875,13.531 -9.3125,-5.6771 -19.044,-10.718 -27.938,-17.031 -7.7806,-5.5236 -20.79,-10.331 -32.406,-7.2188 z" />
        <path
           inkscape:connector-curvature="0"
           id="path3914"
           d="m 201.85,177.92 c 27.372,-8.1781 40.734,-3.3436 59.594,4 13.519,-9.5133 33.031,-20.032 55.562,-19.531 -8.7504,-0.95232 -17.638,-5.2572 -25.719,-3.9375 -13.46,2.1983 -19.127,6.6433 -29.125,13.969 -9.3053,-4.8506 -18.007,-6.4476 -27.906,-7.4375 -8.0611,-0.80611 -17.391,-0.31491 -32.406,12.938 z" />
        <path
           inkscape:connector-curvature="0"
           id="path3925"
           d="m 65.666,208.95 c 16.69,-1.1683 33.373,-4.345 50.062,4 12.017,-8.1781 21.042,-12.333 36.062,-12.5 8.6788,-15.855 9.3537,-21.197 39.562,-22.031 -14.02,-7.0098 -25.645,-8.664 -36.062,1.5 -3.846,3.7523 -9.5312,13 -9.5312,13 -10.889,2.5738 -19.096,6.034 -27.312,13.062 -5.7897,-5.55 -12.432,-6.5226 -19.312,-7.6875 -12.181,-2.0624 -25.805,3.9441 -33.469,10.656 z" />
      </g>
      <path
         style="fill:#8f5902"
         inkscape:connector-curvature="0"
         id="path3851"
         d="m 186.24,64.549 c 3.7237,-12.778 2.0428,-24.482 3.0625,-36.719 2.5664,-8.1175 7.5817,-14.095 18.438,-14.531 3.6186,-0.14553 7.8909,0.31634 12.938,1.5312 73.406,14.406 138.69,83.429 194.25,156.78 -2.8984,19.798 -48.515,-46.917 -68.719,-16.844 -0.50988,2.8043 -9.1299,11.539 -11.654,27.306 4.1364,-3.6578 8.3944,-7.1646 13.061,-11.213 5.4773,-5.5467 11.859,-6.6148 12.469,-15.406 22.813,3.8741 43.656,22.157 68.062,41.812 4.8792,-6.3807 2.2878,2.6489 3.2812,-9.9375 -63.57,-110.51 -145.47,-184.88 -214.79,-185.34 -9.9028,-0.0657 -19.577,1.3761 -28.875,4.4375 -14.897,18.543 -7.6448,35.686 -11.469,53.531 z" />
    </g>
  </g>
</svg>
